<?xml version="1.0" encoding="UTF-8"?>
<!-- Generator: visioncortex VTracer 0.6.4 -->
<svg version="1.1" xmlns="http://www.w3.org/2000/svg" width="256" height="256">
<path d="M0 0 C1.31 -0.01 1.31 -0.01 2.65 -0.02 C5.53 -0.05 8.41 -0.07 11.3 -0.08 C12.29 -0.09 13.28 -0.09 14.3 -0.1 C19.55 -0.12 24.8 -0.14 30.05 -0.16 C34.37 -0.17 38.68 -0.2 43 -0.24 C48.24 -0.29 53.48 -0.31 58.72 -0.32 C60.7 -0.33 62.69 -0.34 64.67 -0.37 C85.52 -0.61 102.34 4.15 117.87 18.97 C118.61 19.7 119.35 20.44 120.11 21.19 C120.74 21.78 121.36 22.37 122.01 22.98 C126.09 27.17 128.73 31.89 131.36 37.07 C131.69 37.72 132.02 38.36 132.36 39.03 C133.35 41.06 134.23 43.11 135.11 45.19 C135.38 45.81 135.65 46.43 135.93 47.07 C139.28 56.24 138.56 66.05 138.55 75.66 C138.55 77.67 138.56 79.67 138.56 81.68 C138.57 85.87 138.57 90.07 138.56 94.27 C138.55 99.59 138.57 104.92 138.6 110.25 C138.61 114.39 138.61 118.53 138.61 122.67 C138.61 124.63 138.61 126.6 138.63 128.56 C138.79 159.24 129.06 187.66 109.11 211.19 C108.69 211.7 108.26 212.21 107.82 212.73 C88.24 235.98 59.29 252.06 29.11 256.19 C26.35 256.32 23.61 256.4 20.85 256.43 C20.05 256.44 19.26 256.45 18.45 256.46 C16.77 256.47 15.09 256.48 13.41 256.49 C11.73 256.5 10.05 256.52 8.38 256.55 C-21.61 257.08 -50.04 246.67 -72.89 227.19 C-73.68 226.53 -73.68 226.53 -74.5 225.85 C-97.52 206.53 -114.5 177.32 -117.89 147.19 C-118.22 141.84 -118.26 136.48 -118.26 131.12 C-118.26 128.66 -118.3 126.2 -118.34 123.75 C-118.54 94.84 -107.51 67.16 -88.89 45.19 C-88.05 44.19 -87.2 43.18 -86.34 42.15 C-65.42 17.87 -32.38 0.17 0 0 Z " fill="#FECA65" transform="translate(117.888427734375,-0.19287109375)"/>
<path d="M0 0 C7.56 5.55 10.08 14.15 11.46 23 C14.58 48.13 11.81 75.31 7.59 100.16 C7.12 103.23 6.95 105.92 7 109 C7.3 108.45 7.59 107.9 7.9 107.34 C23.23 79.06 23.23 79.06 28 75 C28.66 75 29.32 75 30 75 C28.73 78.89 27.37 82.72 25.9 86.54 C25.49 87.58 25.09 88.63 24.67 89.71 C24.25 90.81 23.82 91.92 23.38 93.06 C19.52 103.03 19.52 103.03 15.74 113.03 C15.39 113.95 15.04 114.88 14.68 115.84 C14.04 117.55 13.41 119.26 12.78 120.97 C6.15 138.62 6.15 138.62 1 142 C-1.75 141.75 -1.75 141.75 -4 141 C-6.73 134.37 -7.34 128.92 -6.81 121.81 C-6.76 120.9 -6.7 119.99 -6.64 119.06 C-6.15 111.64 -5.27 104.32 -4 97 C-4.92 97.05 -5.85 97.09 -6.8 97.14 C-24.78 97.64 -43.49 94.51 -58.38 83.82 C-58.91 83.55 -59.45 83.28 -60 83 C-63.7 84.23 -63.93 85.15 -65.75 88.5 C-66.27 89.44 -66.79 90.38 -67.33 91.35 C-67.88 92.37 -68.43 93.39 -69 94.44 C-70.16 96.54 -71.33 98.64 -72.5 100.75 C-73.09 101.8 -73.67 102.85 -74.27 103.94 C-76.76 108.35 -79.36 112.68 -82 117 C-82.43 117.71 -82.86 118.42 -83.31 119.15 C-86.03 123.57 -88.88 127.84 -92 132 C-92.33 132 -92.66 132 -93 132 C-92.39 126.59 -91.13 121.71 -89.38 116.56 C-89.11 115.78 -88.85 115 -88.58 114.2 C-86.27 107.47 -83.51 100.99 -80.57 94.52 C-79.34 91.76 -78.23 89.02 -77.19 86.19 C-66.72 59.67 -49.51 37.22 -29.88 16.95 C-28.18 15.18 -26.49 13.4 -24.81 11.62 C-17.85 4.3 -10.82 -2.36 0 0 Z " fill="#292010" transform="translate(160,47)"/>
<path d="M0 0 C3.82 1.95 5.23 4.06 6.61 7.98 C8.29 13.31 8.49 18.32 8.44 23.88 C8.43 24.92 8.43 25.97 8.42 27.04 C8.24 37.04 7.28 46.94 6.19 56.88 C6.1 57.66 6.02 58.44 5.94 59.24 C5.7 61.47 5.44 63.7 5.17 65.93 C5.02 67.22 4.86 68.51 4.71 69.84 C4 73 3.63 74.2 1 76 C-6.63 77.25 -14.79 75.77 -22.38 74.69 C-23.22 74.57 -24.06 74.45 -24.93 74.33 C-32.81 73.11 -40.11 70.59 -46 65 C-48.12 61.62 -48.12 61.62 -49 58 C-48.13 55.53 -47.15 53.34 -46 51 C-45.29 49.56 -45.29 49.56 -44.57 48.08 C-43.14 45.23 -41.69 42.38 -40.23 39.54 C-39.32 37.77 -38.43 36 -37.53 34.22 C-32.49 24.42 -26.74 15.29 -18.88 7.5 C-17.7 6.31 -17.7 6.31 -16.49 5.09 C-11.11 0.57 -6.84 -0.76 0 0 Z " fill="#FCC864" transform="translate(155,57)"/>
<path d="M0 0 C-1.22 3.65 -2.19 3.99 -5.37 6 C-11.69 10.28 -16.82 15.48 -22.12 20.94 C-23.09 21.92 -24.06 22.9 -25.02 23.88 C-27.36 26.24 -29.68 28.62 -32 31 C-32.66 30.67 -33.32 30.34 -34 30 C-11.02 -0 -11.02 -0 0 0 Z " fill="#FED666" transform="translate(60,19)"/>
<path d="M0 0 C6.22 2.26 9.11 9.41 12 15 C15.33 22.53 18.16 29.47 18.06 37.75 C18.05 38.73 18.04 39.72 18.04 40.73 C18.02 41.48 18.01 42.23 18 43 C17.67 43 17.34 43 17 43 C16.86 42.03 16.73 41.06 16.59 40.06 C14.51 26.59 10.42 14.01 1.29 3.6 C0 2 0 2 0 0 Z " fill="#FDBD5C" transform="translate(238,23)"/>
<path d="M0 0 C0.66 0.66 1.32 1.32 2 2 C-13.09 32.56 -13.09 32.56 -22 36 C-21.22 35.01 -20.43 34.02 -19.62 33 C-11.94 22.73 -5.41 11.62 0 0 Z " fill="#FDBB5C" transform="translate(245,177)"/>
<path d="M0 0 C0.66 0 1.32 0 2 0 C3.55 2.22 5 4.45 6.44 6.75 C10.66 13.33 15.34 18.98 20.75 24.61 C23 27 23 27 25 30 C22 30 22 30 19.62 27.83 C18.69 26.84 17.78 25.83 16.88 24.81 C16.39 24.28 15.91 23.74 15.42 23.2 C9.35 16.32 3.09 8.7 0 0 Z " fill="#FDDA69" transform="translate(16,191)"/>
<path d="M0 0 C0.33 0.99 0.66 1.98 1 3 C-0.28 5.26 -1.59 7.32 -3.06 9.44 C-7.29 15.74 -10.78 22.12 -14 29 C-14.78 26.72 -15.14 25.43 -14.38 23.11 C-13.87 22.15 -13.87 22.15 -13.34 21.17 C-12.77 20.1 -12.77 20.1 -12.19 19.01 C-11.78 18.26 -11.36 17.52 -10.94 16.75 C-10.53 15.99 -10.11 15.23 -9.69 14.45 C-6.84 9.28 -3.77 4.55 0 0 Z " fill="#FDD86D" transform="translate(25,50)"/>
<path d="M0 0 C0.99 0.33 1.98 0.66 3 1 C-1.29 5.58 -5.83 9.62 -10.75 13.5 C-11.32 13.96 -11.88 14.41 -12.47 14.89 C-14.11 16.16 -14.11 16.16 -17 18 C-17.99 17.67 -18.98 17.34 -20 17 C-19.31 16.53 -18.62 16.05 -17.91 15.57 C-11.29 10.91 -5.54 5.91 0 0 Z " fill="#FDC060" transform="translate(220,215)"/>
<path d="M0 0 C0.33 0 0.66 0 1 0 C1 1.65 1 3.3 1 5 C1.66 5 2.32 5 3 5 C2.55 9.93 0.14 13.32 -3 17 C-3.33 17 -3.66 17 -4 17 C-3.36 11.09 -1.81 5.66 0 0 Z " fill="#45391D" transform="translate(71,162)"/>
<path d="M0 0 C3.7 1.65 6.72 3.93 9.94 6.38 C10.96 7.15 11.98 7.92 13.03 8.71 C15.71 10.78 18.36 12.87 21 15 C16.33 14.48 13.63 12.57 9.94 9.75 C8.92 8.98 7.89 8.21 6.84 7.42 C4.15 5.13 2.09 2.83 0 0 Z " fill="#FDD36A" transform="translate(41,222)"/>
<path d="M0 0 C0.33 0 0.66 0 1 0 C1 3.96 1 7.92 1 12 C1.66 12 2.32 12 3 12 C1.88 15.87 0.97 18.29 -2 21 C-1.37 14 -0.71 7 0 0 Z " fill="#DCAC56" transform="translate(168,136)"/>
<path d="M0 0 C0.66 0 1.32 0 2 0 C0.67 4 -0.67 8 -2 12 C-3.5 10.69 -3.5 10.69 -5 9 C-5 4.68 -2.87 3.07 0 0 Z " fill="#423319" transform="translate(188,122)"/>
<path d="M0 0 C-1.24 3.73 -2.62 4.43 -5.81 6.62 C-6.69 7.24 -7.56 7.85 -8.46 8.48 C-10.73 9.84 -12.42 10.55 -15 11 C-4.65 0 -4.65 0 0 0 Z " fill="#FDD569" transform="translate(60,19)"/>
<path d="M0 0 C0.33 0.99 0.66 1.98 1 3 C-0.55 5.48 -0.55 5.48 -2.75 8.19 C-3.47 9.09 -4.18 9.99 -4.92 10.92 C-5.95 11.95 -5.95 11.95 -7 13 C-7.99 13 -8.98 13 -10 13 C-9.17 11.97 -9.17 11.97 -8.32 10.92 C-7.6 10.02 -6.87 9.12 -6.12 8.19 C-5.41 7.29 -4.69 6.4 -3.95 5.48 C-1.92 2.96 -1.92 2.96 0 0 Z " fill="#FDBE5E" transform="translate(233,199)"/>
<path d="M0 0 C2.47 0.5 2.47 0.5 5 1 C5 1.66 5 2.32 5 3 C5.66 3 6.32 3 7 3 C6.34 4.32 5.68 5.64 5 7 C2.47 4.64 1.11 3.34 0 0 Z " fill="#F3CA66" transform="translate(107,117)"/>
<path d="M0 0 C4.21 1.5 5.8 4.23 8 8 C8 8.66 8 9.32 8 10 C7.34 10 6.68 10 6 10 C4.49 8.32 4.49 8.32 2.88 6.12 C2.34 5.41 1.8 4.69 1.24 3.95 C0 2 0 2 0 0 Z " fill="#FDB860" transform="translate(238,23)"/>
<path d="M0 0 C0.33 0 0.66 0 1 0 C1 1.65 1 3.3 1 5 C1.66 5 2.32 5 3 5 C2.67 6.32 2.34 7.64 2 9 C1.01 9 0.02 9 -1 9 C-0.67 6.03 -0.34 3.06 0 0 Z " fill="#3E331A" transform="translate(71,162)"/>
<path d="M0 0 C0.99 0.33 1.98 0.66 3 1 C2.05 2.01 1.09 3 0.12 4 C-0.41 4.56 -0.94 5.11 -1.49 5.69 C-3 7 -3 7 -5 7 C-3.71 4.12 -2.34 2.13 0 0 Z " fill="#FDC25E" transform="translate(220,215)"/>
<path d="M0 0 C2.31 1.98 4.62 3.96 7 6 C6.34 6.66 5.68 7.32 5 8 C2.5 5.69 2.5 5.69 0 3 C0 2.01 0 1.02 0 0 Z " fill="#FDD668" transform="translate(34,214)"/>
<path d="M0 0 C0.33 0 0.66 0 1 0 C2.07 5.96 2.07 5.96 2 8 C1.01 8.99 0.02 9.98 -1 11 C-0.67 7.37 -0.34 3.74 0 0 Z " fill="#C1974C" transform="translate(167,146)"/>
<path d="M0 0 C0.66 0.33 1.32 0.66 2 1 C2 2.32 2 3.64 2 5 C0.35 5 -1.3 5 -3 5 C-2.62 3.06 -2.62 3.06 -2 1 C-1.34 0.67 -0.68 0.34 0 0 Z " fill="#2F2412" transform="translate(183,130)"/>
<path d="M0 0 C2.31 1.98 4.62 3.96 7 6 C6.67 6.66 6.34 7.32 6 8 C3.69 6.02 1.38 4.04 -1 2 C-0.67 1.34 -0.34 0.68 0 0 Z " fill="#FDBD5F" transform="translate(231,15)"/>
<path d="M0 0 C3.69 0.5 5.6 1.1 8 4 C4.31 3.5 2.4 2.9 0 0 Z " fill="#FDD96C" transform="translate(54,233)"/>
<path d="M0 0 C0.33 0 0.66 0 1 0 C1 1.65 1 3.3 1 5 C0.01 5 -0.98 5 -2 5 C-1.34 3.35 -0.68 1.7 0 0 Z " fill="#EAC060" transform="translate(109,108)"/>
<path d="M0 0 C0.33 0.99 0.66 1.98 1 3 C-0.98 3.99 -0.98 3.99 -3 5 C-2.01 3.35 -1.02 1.7 0 0 Z " fill="#FDD36D" transform="translate(29,45)"/>
<path d="M0 0 C0.99 0.33 1.98 0.66 3 1 C1.68 1.99 0.36 2.98 -1 4 C-0.67 2.68 -0.34 1.36 0 0 Z " fill="#FDC05C" transform="translate(220,215)"/>
<path d="M0 0 C0.66 0 1.32 0 2 0 C1.34 1.65 0.68 3.3 0 5 C-0.56 3.06 -0.56 3.06 -1 1 C-0.67 0.67 -0.34 0.34 0 0 Z " fill="#FDAF65" transform="translate(235,196)"/>
<path d="M0 0 C-0.33 0.99 -0.66 1.98 -1 3 C-2.32 2.67 -3.64 2.34 -5 2 C-2 0 -2 0 0 0 Z " fill="#FDDC6E" transform="translate(60,19)"/>
<path d="M0 0 C0.66 0 1.32 0 2 0 C1.34 1.32 0.68 2.64 0 4 C-0.33 3.01 -0.66 2.02 -1 1 C-0.67 0.67 -0.34 0.34 0 0 Z " fill="#322A15" transform="translate(68,175)"/>
<path d="M0 0 C0.66 0 1.32 0 2 0 C1.34 1.32 0.68 2.64 0 4 C-0.33 3.01 -0.66 2.02 -1 1 C-0.67 0.67 -0.34 0.34 0 0 Z " fill="#EBBF60" transform="translate(98,129)"/>
<path d="M0 0 C0.66 0 1.32 0 2 0 C1.67 0.99 1.34 1.98 1 3 C0.01 2.67 -0.98 2.34 -2 2 C-1.34 1.34 -0.68 0.68 0 0 Z " fill="#49381B" transform="translate(188,122)"/>
<path d="M0 0 C0.66 0 1.32 0 2 0 C1.67 0.99 1.34 1.98 1 3 C0.01 2.67 -0.98 2.34 -2 2 C-1.34 1.34 -0.68 0.68 0 0 Z " fill="#FDD26A" transform="translate(47,27)"/>
<path d="M0 0 C1.98 0.99 1.98 0.99 4 2 C3.01 2.33 2.02 2.66 1 3 C0.67 2.01 0.34 1.02 0 0 Z " fill="#FDB562" transform="translate(238,23)"/>
</svg>
